<svg width="248" height="120" viewBox="0 0 248 120" fill="none" xmlns="http://www.w3.org/2000/svg">
<g filter="url(#filter0_d_121_2)">
<rect x="4" width="240" height="112" rx="3" fill="#FFEF5A"/>
</g>
<path d="M34.2637 47.7227L29.6152 58.0742C29.2116 58.9857 28.8014 59.7474 28.3848 60.3594C27.9681 60.9714 27.4733 61.4303 26.9004 61.7363C26.3275 62.0423 25.6016 62.1953 24.7227 62.1953C24.3451 62.1953 23.9935 62.166 23.668 62.1074C23.349 62.0553 23.0625 61.987 22.8086 61.9023V60.252C23.069 60.3757 23.349 60.4733 23.6484 60.5449C23.9544 60.61 24.2767 60.6426 24.6152 60.6426C25.1165 60.6426 25.5462 60.5677 25.9043 60.418C26.2624 60.2617 26.5781 60.0176 26.8516 59.6855C27.125 59.347 27.3854 58.901 27.6328 58.3477L22.125 47.7227H23.9414L28.0039 55.7012C28.056 55.7988 28.1113 55.9128 28.1699 56.043C28.2285 56.1667 28.2871 56.2969 28.3457 56.4336C28.4043 56.5638 28.4564 56.694 28.502 56.8242H28.5703C28.6094 56.7266 28.6517 56.6126 28.6973 56.4824C28.7493 56.3522 28.8014 56.222 28.8535 56.0918C28.9056 55.9616 28.9512 55.8509 28.9902 55.7598L32.4961 47.7227H34.2637ZM38.7363 51.1016C39.5371 51.1016 40.2305 51.2122 40.8164 51.4336C41.4023 51.6484 41.8548 51.9642 42.1738 52.3809C42.4928 52.7975 42.6523 53.3053 42.6523 53.9043C42.6523 54.5488 42.4766 55.0632 42.125 55.4473C41.7734 55.8314 41.2884 56.1081 40.6699 56.2773V56.3555C41.1061 56.4727 41.5 56.6419 41.8516 56.8633C42.2096 57.0781 42.4928 57.3646 42.7012 57.7227C42.916 58.0742 43.0234 58.5137 43.0234 59.041C43.0234 59.64 42.8607 60.1803 42.5352 60.6621C42.2096 61.1374 41.7148 61.5117 41.0508 61.7852C40.3867 62.0586 39.5469 62.1953 38.5312 62.1953C38.0299 62.1953 37.5547 62.166 37.1055 62.1074C36.6562 62.0553 36.2493 61.9772 35.8848 61.873C35.5202 61.7689 35.2012 61.6452 34.9277 61.502V60.0273C35.3835 60.2487 35.9173 60.444 36.5293 60.6133C37.1413 60.7826 37.8021 60.8672 38.5117 60.8672C39.0586 60.8672 39.5501 60.8053 39.9863 60.6816C40.4225 60.5514 40.7676 60.3464 41.0215 60.0664C41.2819 59.7799 41.4121 59.4056 41.4121 58.9434C41.4121 58.5202 41.2982 58.1719 41.0703 57.8984C40.8424 57.6185 40.5007 57.4134 40.0449 57.2832C39.5957 57.1465 39.026 57.0781 38.3359 57.0781H36.9004V55.75H38.082C39 55.75 39.7324 55.6198 40.2793 55.3594C40.8262 55.099 41.0996 54.6595 41.0996 54.041C41.0996 53.5072 40.888 53.11 40.4648 52.8496C40.0417 52.5827 39.4362 52.4492 38.6484 52.4492C38.0625 52.4492 37.5449 52.5111 37.0957 52.6348C36.6465 52.752 36.1615 52.9212 35.6406 53.1426L35.0645 51.8438C35.6243 51.5964 36.2103 51.4108 36.8223 51.2871C37.4342 51.1634 38.0723 51.1016 38.7363 51.1016ZM47.2812 51.2969V55.7891H53.248V51.2969H54.8691V62H53.248V57.166H47.2812V62H45.6504V51.2969H47.2812ZM62.3105 51.1211C63.5866 51.1211 64.5339 51.4076 65.1523 51.9805C65.7708 52.5534 66.0801 53.4681 66.0801 54.7246V62H64.8984L64.5859 60.418H64.5078C64.2083 60.8086 63.8958 61.1374 63.5703 61.4043C63.2448 61.6647 62.8672 61.8633 62.4375 62C62.0143 62.1302 61.4935 62.1953 60.875 62.1953C60.224 62.1953 59.6445 62.0814 59.1367 61.8535C58.6354 61.6257 58.2383 61.2806 57.9453 60.8184C57.6589 60.3561 57.5156 59.7702 57.5156 59.0605C57.5156 57.9928 57.9388 57.1725 58.7852 56.5996C59.6315 56.0267 60.9206 55.7142 62.6523 55.6621L64.498 55.584V54.9297C64.498 54.0052 64.2995 53.3574 63.9023 52.9863C63.5052 52.6152 62.9453 52.4297 62.2227 52.4297C61.6628 52.4297 61.1289 52.5111 60.6211 52.6738C60.1133 52.8366 59.6315 53.0286 59.1758 53.25L58.6777 52.0195C59.1595 51.7721 59.7129 51.5605 60.3379 51.3848C60.9629 51.209 61.6204 51.1211 62.3105 51.1211ZM64.4785 56.7266L62.8477 56.7949C61.513 56.847 60.5723 57.0651 60.0254 57.4492C59.4785 57.8333 59.2051 58.377 59.2051 59.0801C59.2051 59.6921 59.3906 60.1445 59.7617 60.4375C60.1328 60.7305 60.6243 60.877 61.2363 60.877C62.1868 60.877 62.9648 60.6133 63.5703 60.0859C64.1758 59.5586 64.4785 58.7676 64.4785 57.7129V56.7266ZM76.7148 52.6738H73.1895V62H71.5879V52.6738H68.1113V51.2969H76.7148V52.6738ZM80.4648 55.7109H83.7461C84.6576 55.7109 85.416 55.8249 86.0215 56.0527C86.627 56.2806 87.0794 56.6191 87.3789 57.0684C87.6849 57.5176 87.8379 58.0742 87.8379 58.7383C87.8379 59.4023 87.6882 59.9785 87.3887 60.4668C87.0957 60.9551 86.64 61.3327 86.0215 61.5996C85.4095 61.8665 84.6185 62 83.6484 62H78.834V51.2969H80.4648V55.7109ZM86.207 58.8164C86.207 58.1589 85.9727 57.7031 85.5039 57.4492C85.0417 57.1888 84.3939 57.0586 83.5605 57.0586H80.4648V60.6816H83.5703C84.3516 60.6816 84.9863 60.5384 85.4746 60.252C85.9629 59.959 86.207 59.4805 86.207 58.8164ZM95.2695 55.5742C95.2695 54.0508 95.416 52.752 95.709 51.6777C96.002 50.597 96.4544 49.7311 97.0664 49.0801C97.6849 48.4225 98.4792 47.9733 99.4492 47.7324C100.283 47.5046 101.129 47.3092 101.988 47.1465C102.848 46.9772 103.684 46.8307 104.498 46.707L104.781 48.1328C104.371 48.1914 103.941 48.2598 103.492 48.3379C103.043 48.4095 102.594 48.4876 102.145 48.5723C101.695 48.6504 101.272 48.735 100.875 48.8262C100.478 48.9108 100.126 48.9987 99.8203 49.0898C99.2669 49.2396 98.7884 49.5 98.3848 49.8711C97.9876 50.2422 97.6719 50.7533 97.4375 51.4043C97.2096 52.0553 97.0729 52.8757 97.0273 53.8652H97.1445C97.3398 53.5788 97.6068 53.2956 97.9453 53.0156C98.2839 52.7357 98.6875 52.5046 99.1562 52.3223C99.625 52.1335 100.152 52.0391 100.738 52.0391C101.663 52.0391 102.434 52.2409 103.053 52.6445C103.671 53.0417 104.137 53.6016 104.449 54.3242C104.762 55.0469 104.918 55.8932 104.918 56.8633C104.918 58.0286 104.716 59.0085 104.312 59.8027C103.915 60.597 103.355 61.196 102.633 61.5996C101.91 61.9967 101.061 62.1953 100.084 62.1953C99.3288 62.1953 98.6517 62.0488 98.0527 61.7559C97.4603 61.4629 96.9557 61.0332 96.5391 60.4668C96.1289 59.9004 95.8132 59.207 95.5918 58.3867C95.377 57.5664 95.2695 56.6289 95.2695 55.5742ZM100.211 60.8477C100.829 60.8477 101.36 60.7174 101.803 60.457C102.252 60.1966 102.597 59.7865 102.838 59.2266C103.085 58.6602 103.209 57.9245 103.209 57.0195C103.209 55.8867 102.991 55.0013 102.555 54.3633C102.125 53.7188 101.435 53.3965 100.484 53.3965C99.8919 53.3965 99.3548 53.5234 98.873 53.7773C98.3913 54.0247 97.9844 54.321 97.6523 54.666C97.3203 55.0111 97.0794 55.3203 96.9297 55.5938C96.9297 56.2578 96.9785 56.9023 97.0762 57.5273C97.1738 58.1523 97.3431 58.7155 97.584 59.2168C97.8249 59.7181 98.1569 60.1152 98.5801 60.4082C99.0098 60.7012 99.5534 60.8477 100.211 60.8477ZM116.949 56.6289C116.949 57.5078 116.835 58.2923 116.607 58.9824C116.38 59.6725 116.051 60.2552 115.621 60.7305C115.191 61.2057 114.671 61.5703 114.059 61.8242C113.453 62.0716 112.766 62.1953 111.998 62.1953C111.282 62.1953 110.624 62.0716 110.025 61.8242C109.433 61.5703 108.919 61.2057 108.482 60.7305C108.053 60.2552 107.717 59.6725 107.477 58.9824C107.242 58.2923 107.125 57.5078 107.125 56.6289C107.125 55.457 107.324 54.4609 107.721 53.6406C108.118 52.8138 108.684 52.1855 109.42 51.7559C110.162 51.3197 111.044 51.1016 112.066 51.1016C113.043 51.1016 113.896 51.3197 114.625 51.7559C115.361 52.1921 115.93 52.8236 116.334 53.6504C116.744 54.4707 116.949 55.4635 116.949 56.6289ZM108.805 56.6289C108.805 57.4883 108.919 58.2337 109.146 58.8652C109.374 59.4967 109.726 59.985 110.201 60.3301C110.676 60.6751 111.288 60.8477 112.037 60.8477C112.779 60.8477 113.388 60.6751 113.863 60.3301C114.345 59.985 114.7 59.4967 114.928 58.8652C115.156 58.2337 115.27 57.4883 115.27 56.6289C115.27 55.776 115.156 55.0404 114.928 54.4219C114.7 53.7969 114.348 53.3151 113.873 52.9766C113.398 52.638 112.783 52.4688 112.027 52.4688C110.914 52.4688 110.097 52.8366 109.576 53.5723C109.062 54.3079 108.805 55.3268 108.805 56.6289ZM127.779 62H126.129V52.6543H122.877C122.747 54.3405 122.581 55.7858 122.379 56.9902C122.184 58.1882 121.936 59.168 121.637 59.9297C121.344 60.6849 120.986 61.2415 120.562 61.5996C120.146 61.9512 119.648 62.127 119.068 62.127C118.893 62.127 118.727 62.1172 118.57 62.0977C118.414 62.0781 118.281 62.0456 118.17 62V60.7695C118.255 60.7956 118.342 60.8151 118.434 60.8281C118.531 60.8411 118.632 60.8477 118.736 60.8477C119.029 60.8477 119.296 60.7272 119.537 60.4863C119.785 60.2389 120.006 59.8678 120.201 59.373C120.403 58.8783 120.582 58.2533 120.738 57.498C120.895 56.7363 121.031 55.8411 121.148 54.8125C121.272 53.7773 121.38 52.6055 121.471 51.2969H127.779V62ZM132.828 55.7109H136.109C137.021 55.7109 137.779 55.8249 138.385 56.0527C138.99 56.2806 139.443 56.6191 139.742 57.0684C140.048 57.5176 140.201 58.0742 140.201 58.7383C140.201 59.4023 140.051 59.9785 139.752 60.4668C139.459 60.9551 139.003 61.3327 138.385 61.5996C137.773 61.8665 136.982 62 136.012 62H131.197V51.2969H132.828V55.7109ZM138.57 58.8164C138.57 58.1589 138.336 57.7031 137.867 57.4492C137.405 57.1888 136.757 57.0586 135.924 57.0586H132.828V60.6816H135.934C136.715 60.6816 137.35 60.5384 137.838 60.252C138.326 59.959 138.57 59.4805 138.57 58.8164ZM157.35 51.2969V62H142.994V51.2969H144.615V60.623H149.352V51.2969H150.982V60.623H155.729V51.2969H157.35ZM164.908 51.1016C165.82 51.1016 166.601 51.3034 167.252 51.707C167.903 52.1107 168.401 52.6771 168.746 53.4062C169.091 54.1289 169.264 54.9753 169.264 55.9453V56.9512H161.871C161.891 58.2077 162.203 59.1647 162.809 59.8223C163.414 60.4798 164.267 60.8086 165.367 60.8086C166.044 60.8086 166.643 60.7467 167.164 60.623C167.685 60.4993 168.225 60.3171 168.785 60.0762V61.502C168.245 61.7428 167.708 61.9186 167.174 62.0293C166.646 62.14 166.021 62.1953 165.299 62.1953C164.27 62.1953 163.372 61.987 162.604 61.5703C161.842 61.1471 161.249 60.5286 160.826 59.7148C160.403 58.901 160.191 57.9049 160.191 56.7266C160.191 55.5742 160.383 54.5781 160.768 53.7383C161.158 52.8919 161.705 52.2409 162.408 51.7852C163.118 51.3294 163.951 51.1016 164.908 51.1016ZM164.889 52.4297C164.023 52.4297 163.333 52.7129 162.818 53.2793C162.304 53.8457 161.998 54.6367 161.9 55.6523H167.564C167.558 55.0143 167.457 54.4544 167.262 53.9727C167.073 53.4844 166.783 53.1068 166.393 52.8398C166.002 52.5664 165.501 52.4297 164.889 52.4297ZM186.441 56.6289C186.441 57.5078 186.327 58.2923 186.1 58.9824C185.872 59.6725 185.543 60.2552 185.113 60.7305C184.684 61.2057 184.163 61.5703 183.551 61.8242C182.945 62.0716 182.258 62.1953 181.49 62.1953C180.774 62.1953 180.117 62.0716 179.518 61.8242C178.925 61.5703 178.411 61.2057 177.975 60.7305C177.545 60.2552 177.21 59.6725 176.969 58.9824C176.734 58.2923 176.617 57.5078 176.617 56.6289C176.617 55.457 176.816 54.4609 177.213 53.6406C177.61 52.8138 178.176 52.1855 178.912 51.7559C179.654 51.3197 180.536 51.1016 181.559 51.1016C182.535 51.1016 183.388 51.3197 184.117 51.7559C184.853 52.1921 185.423 52.8236 185.826 53.6504C186.236 54.4707 186.441 55.4635 186.441 56.6289ZM178.297 56.6289C178.297 57.4883 178.411 58.2337 178.639 58.8652C178.867 59.4967 179.218 59.985 179.693 60.3301C180.169 60.6751 180.781 60.8477 181.529 60.8477C182.271 60.8477 182.88 60.6751 183.355 60.3301C183.837 59.985 184.192 59.4967 184.42 58.8652C184.648 58.2337 184.762 57.4883 184.762 56.6289C184.762 55.776 184.648 55.0404 184.42 54.4219C184.192 53.7969 183.84 53.3151 183.365 52.9766C182.89 52.638 182.275 52.4688 181.52 52.4688C180.406 52.4688 179.589 52.8366 179.068 53.5723C178.554 54.3079 178.297 55.3268 178.297 56.6289ZM196.07 51.2969V55.7891H202.037V51.2969H203.658V62H202.037V57.166H196.07V62H194.439V51.2969H196.07ZM211.1 51.1211C212.376 51.1211 213.323 51.4076 213.941 51.9805C214.56 52.5534 214.869 53.4681 214.869 54.7246V62H213.688L213.375 60.418H213.297C212.997 60.8086 212.685 61.1374 212.359 61.4043C212.034 61.6647 211.656 61.8633 211.227 62C210.803 62.1302 210.283 62.1953 209.664 62.1953C209.013 62.1953 208.434 62.0814 207.926 61.8535C207.424 61.6257 207.027 61.2806 206.734 60.8184C206.448 60.3561 206.305 59.7702 206.305 59.0605C206.305 57.9928 206.728 57.1725 207.574 56.5996C208.421 56.0267 209.71 55.7142 211.441 55.6621L213.287 55.584V54.9297C213.287 54.0052 213.089 53.3574 212.691 52.9863C212.294 52.6152 211.734 52.4297 211.012 52.4297C210.452 52.4297 209.918 52.5111 209.41 52.6738C208.902 52.8366 208.421 53.0286 207.965 53.25L207.467 52.0195C207.949 51.7721 208.502 51.5605 209.127 51.3848C209.752 51.209 210.41 51.1211 211.1 51.1211ZM213.268 56.7266L211.637 56.7949C210.302 56.847 209.361 57.0651 208.814 57.4492C208.268 57.8333 207.994 58.377 207.994 59.0801C207.994 59.6921 208.18 60.1445 208.551 60.4375C208.922 60.7305 209.413 60.877 210.025 60.877C210.976 60.877 211.754 60.6133 212.359 60.0859C212.965 59.5586 213.268 58.7676 213.268 57.7129V56.7266ZM222.496 62.1953C221.533 62.1953 220.683 61.9967 219.947 61.5996C219.212 61.2025 218.639 60.597 218.229 59.7832C217.818 58.9694 217.613 57.944 217.613 56.707C217.613 55.4115 217.828 54.3535 218.258 53.5332C218.694 52.7064 219.293 52.0944 220.055 51.6973C220.816 51.3001 221.682 51.1016 222.652 51.1016C223.186 51.1016 223.701 51.1569 224.195 51.2676C224.697 51.3717 225.107 51.5052 225.426 51.668L224.938 53.0254C224.612 52.8952 224.234 52.778 223.805 52.6738C223.382 52.5697 222.984 52.5176 222.613 52.5176C221.871 52.5176 221.253 52.6771 220.758 52.9961C220.27 53.3151 219.902 53.7839 219.654 54.4023C219.413 55.0208 219.293 55.7826 219.293 56.6875C219.293 57.5534 219.41 58.2923 219.645 58.9043C219.885 59.5163 220.24 59.985 220.709 60.3105C221.184 60.6296 221.777 60.7891 222.486 60.7891C223.053 60.7891 223.564 60.7305 224.02 60.6133C224.475 60.4896 224.889 60.3464 225.26 60.1836V61.6289C224.902 61.8112 224.501 61.9512 224.059 62.0488C223.622 62.1465 223.102 62.1953 222.496 62.1953Z" fill="black"/>
<defs>
<filter id="filter0_d_121_2" x="0" y="0" width="248" height="120" filterUnits="userSpaceOnUse" color-interpolation-filters="sRGB">
<feFlood flood-opacity="0" result="BackgroundImageFix"/>
<feColorMatrix in="SourceAlpha" type="matrix" values="0 0 0 0 0 0 0 0 0 0 0 0 0 0 0 0 0 0 127 0" result="hardAlpha"/>
<feOffset dy="4"/>
<feGaussianBlur stdDeviation="2"/>
<feComposite in2="hardAlpha" operator="out"/>
<feColorMatrix type="matrix" values="0 0 0 0 0 0 0 0 0 0 0 0 0 0 0 0 0 0 0.25 0"/>
<feBlend mode="normal" in2="BackgroundImageFix" result="effect1_dropShadow_121_2"/>
<feBlend mode="normal" in="SourceGraphic" in2="effect1_dropShadow_121_2" result="shape"/>
</filter>
</defs>
</svg>
