<svg width="158" height="78" viewBox="0 0 158 78" fill="none" xmlns="http://www.w3.org/2000/svg">
<g filter="url(#filter0_d_102_22)">
<rect x="4" width="150" height="70" rx="3" fill="#FFEF5A"/>
</g>
<path d="M31.4688 31.5859C30.8385 31.5859 30.2708 31.6953 29.7656 31.9141C29.2656 32.1276 28.8385 32.4401 28.4844 32.8516C28.1354 33.2578 27.8672 33.75 27.6797 34.3281C27.4922 34.9062 27.3984 35.5573 27.3984 36.2812C27.3984 37.2396 27.5469 38.0729 27.8438 38.7812C28.1458 39.4844 28.5938 40.0286 29.1875 40.4141C29.7865 40.7995 30.5339 40.9922 31.4297 40.9922C31.9401 40.9922 32.4193 40.9505 32.8672 40.8672C33.3203 40.7786 33.7604 40.6693 34.1875 40.5391V41.6953C33.7708 41.8516 33.3333 41.9661 32.875 42.0391C32.4167 42.1172 31.8724 42.1562 31.2422 42.1562C30.0807 42.1562 29.1094 41.9167 28.3281 41.4375C27.5521 40.9531 26.9688 40.2708 26.5781 39.3906C26.1927 38.5104 26 37.4714 26 36.2734C26 35.4089 26.1198 34.6198 26.3594 33.9062C26.6042 33.1875 26.9583 32.5677 27.4219 32.0469C27.8906 31.526 28.4635 31.125 29.1406 30.8438C29.8229 30.5573 30.6042 30.4141 31.4844 30.4141C32.0625 30.4141 32.6198 30.4714 33.1562 30.5859C33.6927 30.7005 34.1771 30.8646 34.6094 31.0781L34.0781 32.2031C33.7135 32.0365 33.3125 31.8932 32.875 31.7734C32.4427 31.6484 31.974 31.5859 31.4688 31.5859ZM42.7422 33.4375V40.8984H43.9688V44.9609H42.7109V42H36.6484V44.9609H35.4062V40.8984H36.0781C36.5677 40.2214 36.974 39.4792 37.2969 38.6719C37.6198 37.8646 37.8646 37.0182 38.0312 36.1328C38.1979 35.2422 38.2865 34.3438 38.2969 33.4375H42.7422ZM41.4844 34.4688H39.4531C39.4062 35.2292 39.2943 36.0026 39.1172 36.7891C38.9453 37.5755 38.7161 38.3255 38.4297 39.0391C38.1432 39.7474 37.8099 40.3672 37.4297 40.8984H41.4844V34.4688ZM48.9688 33.2812C49.6979 33.2812 50.3229 33.4427 50.8438 33.7656C51.3646 34.0885 51.763 34.5417 52.0391 35.125C52.3151 35.7031 52.4531 36.3802 52.4531 37.1562V37.9609H46.5391C46.5547 38.9661 46.8047 39.7318 47.2891 40.2578C47.7734 40.7839 48.4557 41.0469 49.3359 41.0469C49.8776 41.0469 50.3568 40.9974 50.7734 40.8984C51.1901 40.7995 51.6224 40.6536 52.0703 40.4609V41.6016C51.638 41.7943 51.2083 41.9349 50.7812 42.0234C50.3594 42.112 49.8594 42.1562 49.2812 42.1562C48.4583 42.1562 47.7396 41.9896 47.125 41.6562C46.5156 41.3177 46.0417 40.8229 45.7031 40.1719C45.3646 39.5208 45.1953 38.724 45.1953 37.7812C45.1953 36.8594 45.349 36.0625 45.6562 35.3906C45.9688 34.7135 46.4062 34.1927 46.9688 33.8281C47.5365 33.4635 48.2031 33.2812 48.9688 33.2812ZM48.9531 34.3438C48.2604 34.3438 47.7083 34.5703 47.2969 35.0234C46.8854 35.4766 46.6406 36.1094 46.5625 36.9219H51.0938C51.0885 36.4115 51.0078 35.9635 50.8516 35.5781C50.7005 35.1875 50.4688 34.8854 50.1562 34.6719C49.8438 34.4531 49.4427 34.3438 48.9531 34.3438ZM61.0781 42H59.7578V34.5234H57.1562C57.0521 35.8724 56.9193 37.0286 56.7578 37.9922C56.6016 38.9505 56.4036 39.7344 56.1641 40.3438C55.9297 40.9479 55.6432 41.3932 55.3047 41.6797C54.9714 41.9609 54.5729 42.1016 54.1094 42.1016C53.9688 42.1016 53.8359 42.0938 53.7109 42.0781C53.5859 42.0625 53.4792 42.0365 53.3906 42V41.0156C53.4583 41.0365 53.5286 41.0521 53.6016 41.0625C53.6797 41.0729 53.7604 41.0781 53.8438 41.0781C54.0781 41.0781 54.2917 40.9818 54.4844 40.7891C54.6823 40.5911 54.8594 40.2943 55.0156 39.8984C55.1771 39.5026 55.3203 39.0026 55.4453 38.3984C55.5703 37.7891 55.6797 37.0729 55.7734 36.25C55.8724 35.4219 55.9583 34.4844 56.0312 33.4375H61.0781V42ZM67.0156 33.2969C68.0365 33.2969 68.7943 33.526 69.2891 33.9844C69.7839 34.4427 70.0312 35.1745 70.0312 36.1797V42H69.0859L68.8359 40.7344H68.7734C68.5339 41.0469 68.2839 41.3099 68.0234 41.5234C67.763 41.7318 67.4609 41.8906 67.1172 42C66.7786 42.1042 66.362 42.1562 65.8672 42.1562C65.3464 42.1562 64.8828 42.0651 64.4766 41.8828C64.0755 41.7005 63.7578 41.4245 63.5234 41.0547C63.2943 40.6849 63.1797 40.2161 63.1797 39.6484C63.1797 38.7943 63.5182 38.138 64.1953 37.6797C64.8724 37.2214 65.9036 36.9714 67.2891 36.9297L68.7656 36.8672V36.3438C68.7656 35.6042 68.6068 35.0859 68.2891 34.7891C67.9714 34.4922 67.5234 34.3438 66.9453 34.3438C66.4974 34.3438 66.0703 34.4089 65.6641 34.5391C65.2578 34.6693 64.8724 34.8229 64.5078 35L64.1094 34.0156C64.4948 33.8177 64.9375 33.6484 65.4375 33.5078C65.9375 33.3672 66.4635 33.2969 67.0156 33.2969ZM68.75 37.7812L67.4453 37.8359C66.3776 37.8776 65.625 38.0521 65.1875 38.3594C64.75 38.6667 64.5312 39.1016 64.5312 39.6641C64.5312 40.1536 64.6797 40.5156 64.9766 40.75C65.2734 40.9844 65.6667 41.1016 66.1562 41.1016C66.9167 41.1016 67.5391 40.8906 68.0234 40.4688C68.5078 40.0469 68.75 39.4141 68.75 38.5703V37.7812ZM78.5391 34.5391H75.7188V42H74.4375V34.5391H71.6562V33.4375H78.5391V34.5391ZM81.5391 36.9688H84.1641C84.8932 36.9688 85.5 37.0599 85.9844 37.2422C86.4688 37.4245 86.8307 37.6953 87.0703 38.0547C87.3151 38.4141 87.4375 38.8594 87.4375 39.3906C87.4375 39.9219 87.3177 40.3828 87.0781 40.7734C86.8438 41.1641 86.4792 41.4661 85.9844 41.6797C85.4948 41.8932 84.862 42 84.0859 42H80.2344V33.4375H81.5391V36.9688ZM86.1328 39.4531C86.1328 38.9271 85.9453 38.5625 85.5703 38.3594C85.2005 38.151 84.6823 38.0469 84.0156 38.0469H81.5391V40.9453H84.0234C84.6484 40.9453 85.1562 40.8307 85.5469 40.6016C85.9375 40.3672 86.1328 39.9844 86.1328 39.4531ZM96.0312 33.2812C96.6719 33.2812 97.2266 33.3698 97.6953 33.5469C98.1641 33.7188 98.526 33.9714 98.7812 34.3047C99.0365 34.638 99.1641 35.0443 99.1641 35.5234C99.1641 36.0391 99.0234 36.4505 98.7422 36.7578C98.4609 37.0651 98.0729 37.2865 97.5781 37.4219V37.4844C97.9271 37.5781 98.2422 37.7135 98.5234 37.8906C98.8099 38.0625 99.0365 38.2917 99.2031 38.5781C99.375 38.8594 99.4609 39.2109 99.4609 39.6328C99.4609 40.112 99.3307 40.5443 99.0703 40.9297C98.8099 41.3099 98.4141 41.6094 97.8828 41.8281C97.3516 42.0469 96.6797 42.1562 95.8672 42.1562C95.4661 42.1562 95.0859 42.1328 94.7266 42.0859C94.3672 42.0443 94.0417 41.9818 93.75 41.8984C93.4583 41.8151 93.2031 41.7161 92.9844 41.6016V40.4219C93.349 40.599 93.776 40.7552 94.2656 40.8906C94.7552 41.026 95.2839 41.0938 95.8516 41.0938C96.2891 41.0938 96.6823 41.0443 97.0312 40.9453C97.3802 40.8411 97.6562 40.6771 97.8594 40.4531C98.0677 40.224 98.1719 39.9245 98.1719 39.5547C98.1719 39.2161 98.0807 38.9375 97.8984 38.7188C97.7161 38.4948 97.4427 38.3307 97.0781 38.2266C96.7188 38.1172 96.263 38.0625 95.7109 38.0625H94.5625V37H95.5078C96.2422 37 96.8281 36.8958 97.2656 36.6875C97.7031 36.4792 97.9219 36.1276 97.9219 35.6328C97.9219 35.2057 97.7526 34.888 97.4141 34.6797C97.0755 34.4661 96.5911 34.3594 95.9609 34.3594C95.4922 34.3594 95.0781 34.4089 94.7188 34.5078C94.3594 34.6016 93.9714 34.737 93.5547 34.9141L93.0938 33.875C93.5417 33.6771 94.0104 33.5286 94.5 33.4297C94.9896 33.3307 95.5 33.2812 96.0312 33.2812ZM104.766 33.2969C105.786 33.2969 106.544 33.526 107.039 33.9844C107.534 34.4427 107.781 35.1745 107.781 36.1797V42H106.836L106.586 40.7344H106.523C106.284 41.0469 106.034 41.3099 105.773 41.5234C105.513 41.7318 105.211 41.8906 104.867 42C104.529 42.1042 104.112 42.1562 103.617 42.1562C103.096 42.1562 102.633 42.0651 102.227 41.8828C101.826 41.7005 101.508 41.4245 101.273 41.0547C101.044 40.6849 100.93 40.2161 100.93 39.6484C100.93 38.7943 101.268 38.138 101.945 37.6797C102.622 37.2214 103.654 36.9714 105.039 36.9297L106.516 36.8672V36.3438C106.516 35.6042 106.357 35.0859 106.039 34.7891C105.721 34.4922 105.273 34.3438 104.695 34.3438C104.247 34.3438 103.82 34.4089 103.414 34.5391C103.008 34.6693 102.622 34.8229 102.258 35L101.859 34.0156C102.245 33.8177 102.688 33.6484 103.188 33.5078C103.688 33.3672 104.214 33.2969 104.766 33.2969ZM106.5 37.7812L105.195 37.8359C104.128 37.8776 103.375 38.0521 102.938 38.3594C102.5 38.6667 102.281 39.1016 102.281 39.6641C102.281 40.1536 102.43 40.5156 102.727 40.75C103.023 40.9844 103.417 41.1016 103.906 41.1016C104.667 41.1016 105.289 40.8906 105.773 40.4688C106.258 40.0469 106.5 39.4141 106.5 38.5703V37.7812ZM115.445 33.4375H116.875L113.18 37.5703L117.172 42H115.648L111.758 37.6562V42H110.453V33.4375H111.758V37.5938L115.445 33.4375ZM121.922 33.2969C122.943 33.2969 123.701 33.526 124.195 33.9844C124.69 34.4427 124.938 35.1745 124.938 36.1797V42H123.992L123.742 40.7344H123.68C123.44 41.0469 123.19 41.3099 122.93 41.5234C122.669 41.7318 122.367 41.8906 122.023 42C121.685 42.1042 121.268 42.1562 120.773 42.1562C120.253 42.1562 119.789 42.0651 119.383 41.8828C118.982 41.7005 118.664 41.4245 118.43 41.0547C118.201 40.6849 118.086 40.2161 118.086 39.6484C118.086 38.7943 118.424 38.138 119.102 37.6797C119.779 37.2214 120.81 36.9714 122.195 36.9297L123.672 36.8672V36.3438C123.672 35.6042 123.513 35.0859 123.195 34.7891C122.878 34.4922 122.43 34.3438 121.852 34.3438C121.404 34.3438 120.977 34.4089 120.57 34.5391C120.164 34.6693 119.779 34.8229 119.414 35L119.016 34.0156C119.401 33.8177 119.844 33.6484 120.344 33.5078C120.844 33.3672 121.37 33.2969 121.922 33.2969ZM123.656 37.7812L122.352 37.8359C121.284 37.8776 120.531 38.0521 120.094 38.3594C119.656 38.6667 119.438 39.1016 119.438 39.6641C119.438 40.1536 119.586 40.5156 119.883 40.75C120.18 40.9844 120.573 41.1016 121.062 41.1016C121.823 41.1016 122.445 40.8906 122.93 40.4688C123.414 40.0469 123.656 39.4141 123.656 38.5703V37.7812ZM129.812 33.2812C130.453 33.2812 131.008 33.3698 131.477 33.5469C131.945 33.7188 132.307 33.9714 132.562 34.3047C132.818 34.638 132.945 35.0443 132.945 35.5234C132.945 36.0391 132.805 36.4505 132.523 36.7578C132.242 37.0651 131.854 37.2865 131.359 37.4219V37.4844C131.708 37.5781 132.023 37.7135 132.305 37.8906C132.591 38.0625 132.818 38.2917 132.984 38.5781C133.156 38.8594 133.242 39.2109 133.242 39.6328C133.242 40.112 133.112 40.5443 132.852 40.9297C132.591 41.3099 132.195 41.6094 131.664 41.8281C131.133 42.0469 130.461 42.1562 129.648 42.1562C129.247 42.1562 128.867 42.1328 128.508 42.0859C128.148 42.0443 127.823 41.9818 127.531 41.8984C127.24 41.8151 126.984 41.7161 126.766 41.6016V40.4219C127.13 40.599 127.557 40.7552 128.047 40.8906C128.536 41.026 129.065 41.0938 129.633 41.0938C130.07 41.0938 130.464 41.0443 130.812 40.9453C131.161 40.8411 131.438 40.6771 131.641 40.4531C131.849 40.224 131.953 39.9245 131.953 39.5547C131.953 39.2161 131.862 38.9375 131.68 38.7188C131.497 38.4948 131.224 38.3307 130.859 38.2266C130.5 38.1172 130.044 38.0625 129.492 38.0625H128.344V37H129.289C130.023 37 130.609 36.8958 131.047 36.6875C131.484 36.4792 131.703 36.1276 131.703 35.6328C131.703 35.2057 131.534 34.888 131.195 34.6797C130.857 34.4661 130.372 34.3594 129.742 34.3594C129.273 34.3594 128.859 34.4089 128.5 34.5078C128.141 34.6016 127.753 34.737 127.336 34.9141L126.875 33.875C127.323 33.6771 127.792 33.5286 128.281 33.4297C128.771 33.3307 129.281 33.2812 129.812 33.2812Z" fill="black"/>
<defs>
<filter id="filter0_d_102_22" x="0" y="0" width="158" height="78" filterUnits="userSpaceOnUse" color-interpolation-filters="sRGB">
<feFlood flood-opacity="0" result="BackgroundImageFix"/>
<feColorMatrix in="SourceAlpha" type="matrix" values="0 0 0 0 0 0 0 0 0 0 0 0 0 0 0 0 0 0 127 0" result="hardAlpha"/>
<feOffset dy="4"/>
<feGaussianBlur stdDeviation="2"/>
<feComposite in2="hardAlpha" operator="out"/>
<feColorMatrix type="matrix" values="0 0 0 0 0 0 0 0 0 0 0 0 0 0 0 0 0 0 0.25 0"/>
<feBlend mode="normal" in2="BackgroundImageFix" result="effect1_dropShadow_102_22"/>
<feBlend mode="normal" in="SourceGraphic" in2="effect1_dropShadow_102_22" result="shape"/>
</filter>
</defs>
</svg>
