<svg width="248" height="120" viewBox="0 0 248 120" fill="none" xmlns="http://www.w3.org/2000/svg">
<g filter="url(#filter0_d_123_5)">
<rect x="4" width="240" height="112" rx="3" fill="#FFEF5A"/>
</g>
<path d="M41.2168 41.7227L36.5684 52.0742C36.1647 52.9857 35.7546 53.7474 35.3379 54.3594C34.9212 54.9714 34.4264 55.4303 33.8535 55.7363C33.2806 56.0423 32.5547 56.1953 31.6758 56.1953C31.2982 56.1953 30.9466 56.166 30.6211 56.1074C30.3021 56.0553 30.0156 55.987 29.7617 55.9023V54.252C30.0221 54.3757 30.3021 54.4733 30.6016 54.5449C30.9076 54.61 31.2298 54.6426 31.5684 54.6426C32.0697 54.6426 32.4993 54.5677 32.8574 54.418C33.2155 54.2617 33.5312 54.0176 33.8047 53.6855C34.0781 53.347 34.3385 52.901 34.5859 52.3477L29.0781 41.7227H30.8945L34.957 49.7012C35.0091 49.7988 35.0645 49.9128 35.123 50.043C35.1816 50.1667 35.2402 50.2969 35.2988 50.4336C35.3574 50.5638 35.4095 50.694 35.4551 50.8242H35.5234C35.5625 50.7266 35.6048 50.6126 35.6504 50.4824C35.7025 50.3522 35.7546 50.222 35.8066 50.0918C35.8587 49.9616 35.9043 49.8509 35.9434 49.7598L39.4492 41.7227H41.2168ZM45.6895 45.1016C46.4902 45.1016 47.1836 45.2122 47.7695 45.4336C48.3555 45.6484 48.8079 45.9642 49.127 46.3809C49.446 46.7975 49.6055 47.3053 49.6055 47.9043C49.6055 48.5488 49.4297 49.0632 49.0781 49.4473C48.7266 49.8314 48.2415 50.1081 47.623 50.2773V50.3555C48.0592 50.4727 48.4531 50.6419 48.8047 50.8633C49.1628 51.0781 49.446 51.3646 49.6543 51.7227C49.8691 52.0742 49.9766 52.5137 49.9766 53.041C49.9766 53.64 49.8138 54.1803 49.4883 54.6621C49.1628 55.1374 48.668 55.5117 48.0039 55.7852C47.3398 56.0586 46.5 56.1953 45.4844 56.1953C44.9831 56.1953 44.5078 56.166 44.0586 56.1074C43.6094 56.0553 43.2025 55.9772 42.8379 55.873C42.4733 55.7689 42.1543 55.6452 41.8809 55.502V54.0273C42.3366 54.2487 42.8704 54.444 43.4824 54.6133C44.0944 54.7826 44.7552 54.8672 45.4648 54.8672C46.0117 54.8672 46.5033 54.8053 46.9395 54.6816C47.3757 54.5514 47.7207 54.3464 47.9746 54.0664C48.235 53.7799 48.3652 53.4056 48.3652 52.9434C48.3652 52.5202 48.2513 52.1719 48.0234 51.8984C47.7956 51.6185 47.4538 51.4134 46.998 51.2832C46.5488 51.1465 45.9792 51.0781 45.2891 51.0781H43.8535V49.75H45.0352C45.9531 49.75 46.6855 49.6198 47.2324 49.3594C47.7793 49.099 48.0527 48.6595 48.0527 48.041C48.0527 47.5072 47.8411 47.11 47.418 46.8496C46.9948 46.5827 46.3893 46.4492 45.6016 46.4492C45.0156 46.4492 44.498 46.5111 44.0488 46.6348C43.5996 46.752 43.1146 46.9212 42.5938 47.1426L42.0176 45.8438C42.5775 45.5964 43.1634 45.4108 43.7754 45.2871C44.3874 45.1634 45.0254 45.1016 45.6895 45.1016ZM54.2344 45.2969V49.7891H60.2012V45.2969H61.8223V56H60.2012V51.166H54.2344V56H52.6035V45.2969H54.2344ZM69.2637 45.1211C70.5397 45.1211 71.487 45.4076 72.1055 45.9805C72.724 46.5534 73.0332 47.4681 73.0332 48.7246V56H71.8516L71.5391 54.418H71.4609C71.1615 54.8086 70.849 55.1374 70.5234 55.4043C70.1979 55.6647 69.8203 55.8633 69.3906 56C68.9674 56.1302 68.4466 56.1953 67.8281 56.1953C67.1771 56.1953 66.5977 56.0814 66.0898 55.8535C65.5885 55.6257 65.1914 55.2806 64.8984 54.8184C64.612 54.3561 64.4688 53.7702 64.4688 53.0605C64.4688 51.9928 64.8919 51.1725 65.7383 50.5996C66.5846 50.0267 67.8737 49.7142 69.6055 49.6621L71.4512 49.584V48.9297C71.4512 48.0052 71.2526 47.3574 70.8555 46.9863C70.4583 46.6152 69.8984 46.4297 69.1758 46.4297C68.6159 46.4297 68.082 46.5111 67.5742 46.6738C67.0664 46.8366 66.5846 47.0286 66.1289 47.25L65.6309 46.0195C66.1126 45.7721 66.666 45.5605 67.291 45.3848C67.916 45.209 68.5736 45.1211 69.2637 45.1211ZM71.4316 50.7266L69.8008 50.7949C68.4661 50.847 67.5254 51.0651 66.9785 51.4492C66.4316 51.8333 66.1582 52.377 66.1582 53.0801C66.1582 53.6921 66.3438 54.1445 66.7148 54.4375C67.0859 54.7305 67.5775 54.877 68.1895 54.877C69.14 54.877 69.918 54.6133 70.5234 54.0859C71.1289 53.5586 71.4316 52.7676 71.4316 51.7129V50.7266ZM83.668 46.6738H80.1426V56H78.541V46.6738H75.0645V45.2969H83.668V46.6738ZM87.418 49.7109H90.6992C91.6107 49.7109 92.3691 49.8249 92.9746 50.0527C93.5801 50.2806 94.0326 50.6191 94.332 51.0684C94.638 51.5176 94.791 52.0742 94.791 52.7383C94.791 53.4023 94.6413 53.9785 94.3418 54.4668C94.0488 54.9551 93.5931 55.3327 92.9746 55.5996C92.3626 55.8665 91.5716 56 90.6016 56H85.7871V45.2969H87.418V49.7109ZM93.1602 52.8164C93.1602 52.1589 92.9258 51.7031 92.457 51.4492C91.9948 51.1888 91.347 51.0586 90.5137 51.0586H87.418V54.6816H90.5234C91.3047 54.6816 91.9395 54.5384 92.4277 54.252C92.916 53.959 93.1602 53.4805 93.1602 52.8164ZM102.223 49.5742C102.223 48.0508 102.369 46.752 102.662 45.6777C102.955 44.597 103.408 43.7311 104.02 43.0801C104.638 42.4225 105.432 41.9733 106.402 41.7324C107.236 41.5046 108.082 41.3092 108.941 41.1465C109.801 40.9772 110.637 40.8307 111.451 40.707L111.734 42.1328C111.324 42.1914 110.895 42.2598 110.445 42.3379C109.996 42.4095 109.547 42.4876 109.098 42.5723C108.648 42.6504 108.225 42.735 107.828 42.8262C107.431 42.9108 107.079 42.9987 106.773 43.0898C106.22 43.2396 105.742 43.5 105.338 43.8711C104.941 44.2422 104.625 44.7533 104.391 45.4043C104.163 46.0553 104.026 46.8757 103.98 47.8652H104.098C104.293 47.5788 104.56 47.2956 104.898 47.0156C105.237 46.7357 105.641 46.5046 106.109 46.3223C106.578 46.1335 107.105 46.0391 107.691 46.0391C108.616 46.0391 109.387 46.2409 110.006 46.6445C110.624 47.0417 111.09 47.6016 111.402 48.3242C111.715 49.0469 111.871 49.8932 111.871 50.8633C111.871 52.0286 111.669 53.0085 111.266 53.8027C110.868 54.597 110.309 55.196 109.586 55.5996C108.863 55.9967 108.014 56.1953 107.037 56.1953C106.282 56.1953 105.605 56.0488 105.006 55.7559C104.413 55.4629 103.909 55.0332 103.492 54.4668C103.082 53.9004 102.766 53.207 102.545 52.3867C102.33 51.5664 102.223 50.6289 102.223 49.5742ZM107.164 54.8477C107.783 54.8477 108.313 54.7174 108.756 54.457C109.205 54.1966 109.55 53.7865 109.791 53.2266C110.038 52.6602 110.162 51.9245 110.162 51.0195C110.162 49.8867 109.944 49.0013 109.508 48.3633C109.078 47.7188 108.388 47.3965 107.438 47.3965C106.845 47.3965 106.308 47.5234 105.826 47.7773C105.344 48.0247 104.938 48.321 104.605 48.666C104.273 49.0111 104.033 49.3203 103.883 49.5938C103.883 50.2578 103.932 50.9023 104.029 51.5273C104.127 52.1523 104.296 52.7155 104.537 53.2168C104.778 53.7181 105.11 54.1152 105.533 54.4082C105.963 54.7012 106.507 54.8477 107.164 54.8477ZM123.902 50.6289C123.902 51.5078 123.788 52.2923 123.561 52.9824C123.333 53.6725 123.004 54.2552 122.574 54.7305C122.145 55.2057 121.624 55.5703 121.012 55.8242C120.406 56.0716 119.719 56.1953 118.951 56.1953C118.235 56.1953 117.577 56.0716 116.979 55.8242C116.386 55.5703 115.872 55.2057 115.436 54.7305C115.006 54.2552 114.671 53.6725 114.43 52.9824C114.195 52.2923 114.078 51.5078 114.078 50.6289C114.078 49.457 114.277 48.4609 114.674 47.6406C115.071 46.8138 115.637 46.1855 116.373 45.7559C117.115 45.3197 117.997 45.1016 119.02 45.1016C119.996 45.1016 120.849 45.3197 121.578 45.7559C122.314 46.1921 122.883 46.8236 123.287 47.6504C123.697 48.4707 123.902 49.4635 123.902 50.6289ZM115.758 50.6289C115.758 51.4883 115.872 52.2337 116.1 52.8652C116.327 53.4967 116.679 53.985 117.154 54.3301C117.63 54.6751 118.242 54.8477 118.99 54.8477C119.732 54.8477 120.341 54.6751 120.816 54.3301C121.298 53.985 121.653 53.4967 121.881 52.8652C122.109 52.2337 122.223 51.4883 122.223 50.6289C122.223 49.776 122.109 49.0404 121.881 48.4219C121.653 47.7969 121.301 47.3151 120.826 46.9766C120.351 46.638 119.736 46.4688 118.98 46.4688C117.867 46.4688 117.05 46.8366 116.529 47.5723C116.015 48.3079 115.758 49.3268 115.758 50.6289ZM134.732 56H133.082V46.6543H129.83C129.7 48.3405 129.534 49.7858 129.332 50.9902C129.137 52.1882 128.889 53.168 128.59 53.9297C128.297 54.6849 127.939 55.2415 127.516 55.5996C127.099 55.9512 126.601 56.127 126.021 56.127C125.846 56.127 125.68 56.1172 125.523 56.0977C125.367 56.0781 125.234 56.0456 125.123 56V54.7695C125.208 54.7956 125.296 54.8151 125.387 54.8281C125.484 54.8411 125.585 54.8477 125.689 54.8477C125.982 54.8477 126.249 54.7272 126.49 54.4863C126.738 54.2389 126.959 53.8678 127.154 53.373C127.356 52.8783 127.535 52.2533 127.691 51.498C127.848 50.7363 127.984 49.8411 128.102 48.8125C128.225 47.7773 128.333 46.6055 128.424 45.2969H134.732V56ZM139.781 49.7109H143.062C143.974 49.7109 144.732 49.8249 145.338 50.0527C145.943 50.2806 146.396 50.6191 146.695 51.0684C147.001 51.5176 147.154 52.0742 147.154 52.7383C147.154 53.4023 147.005 53.9785 146.705 54.4668C146.412 54.9551 145.956 55.3327 145.338 55.5996C144.726 55.8665 143.935 56 142.965 56H138.15V45.2969H139.781V49.7109ZM145.523 52.8164C145.523 52.1589 145.289 51.7031 144.82 51.4492C144.358 51.1888 143.71 51.0586 142.877 51.0586H139.781V54.6816H142.887C143.668 54.6816 144.303 54.5384 144.791 54.252C145.279 53.959 145.523 53.4805 145.523 52.8164ZM164.303 45.2969V56H149.947V45.2969H151.568V54.623H156.305V45.2969H157.936V54.623H162.682V45.2969H164.303ZM171.861 45.1016C172.773 45.1016 173.554 45.3034 174.205 45.707C174.856 46.1107 175.354 46.6771 175.699 47.4062C176.044 48.1289 176.217 48.9753 176.217 49.9453V50.9512H168.824C168.844 52.2077 169.156 53.1647 169.762 53.8223C170.367 54.4798 171.22 54.8086 172.32 54.8086C172.997 54.8086 173.596 54.7467 174.117 54.623C174.638 54.4993 175.178 54.3171 175.738 54.0762V55.502C175.198 55.7428 174.661 55.9186 174.127 56.0293C173.6 56.14 172.975 56.1953 172.252 56.1953C171.223 56.1953 170.325 55.987 169.557 55.5703C168.795 55.1471 168.202 54.5286 167.779 53.7148C167.356 52.901 167.145 51.9049 167.145 50.7266C167.145 49.5742 167.337 48.5781 167.721 47.7383C168.111 46.8919 168.658 46.2409 169.361 45.7852C170.071 45.3294 170.904 45.1016 171.861 45.1016ZM171.842 46.4297C170.976 46.4297 170.286 46.7129 169.771 47.2793C169.257 47.8457 168.951 48.6367 168.854 49.6523H174.518C174.511 49.0143 174.41 48.4544 174.215 47.9727C174.026 47.4844 173.736 47.1068 173.346 46.8398C172.955 46.5664 172.454 46.4297 171.842 46.4297ZM193.131 45.2969V56H191.5V46.6934H185.797V56H184.166V45.2969H193.131ZM201.598 45.1016C202.932 45.1016 203.997 45.5605 204.791 46.4785C205.585 47.3965 205.982 48.7767 205.982 50.6191C205.982 51.8366 205.8 52.8587 205.436 53.6855C205.071 54.5124 204.557 55.1374 203.893 55.5605C203.235 55.9837 202.457 56.1953 201.559 56.1953C200.992 56.1953 200.494 56.1204 200.064 55.9707C199.635 55.821 199.267 55.6191 198.961 55.3652C198.655 55.1113 198.401 54.8346 198.199 54.5352H198.082C198.102 54.7891 198.124 55.0951 198.15 55.4531C198.183 55.8112 198.199 56.1237 198.199 56.3906V60.7852H196.568V45.2969H197.906L198.121 46.8789H198.199C198.408 46.5534 198.661 46.2572 198.961 45.9902C199.26 45.7168 199.625 45.502 200.055 45.3457C200.491 45.1829 201.005 45.1016 201.598 45.1016ZM201.314 46.4688C200.572 46.4688 199.973 46.612 199.518 46.8984C199.068 47.1849 198.74 47.6146 198.531 48.1875C198.323 48.7539 198.212 49.4668 198.199 50.3262V50.6387C198.199 51.5436 198.297 52.3086 198.492 52.9336C198.694 53.5586 199.023 54.0339 199.479 54.3594C199.941 54.6849 200.559 54.8477 201.334 54.8477C201.998 54.8477 202.551 54.6686 202.994 54.3105C203.437 53.9525 203.766 53.4544 203.98 52.8164C204.202 52.1719 204.312 51.4329 204.312 50.5996C204.312 49.3366 204.065 48.334 203.57 47.5918C203.082 46.8431 202.33 46.4688 201.314 46.4688ZM218.043 50.6289C218.043 51.5078 217.929 52.2923 217.701 52.9824C217.473 53.6725 217.145 54.2552 216.715 54.7305C216.285 55.2057 215.764 55.5703 215.152 55.8242C214.547 56.0716 213.86 56.1953 213.092 56.1953C212.376 56.1953 211.718 56.0716 211.119 55.8242C210.527 55.5703 210.012 55.2057 209.576 54.7305C209.146 54.2552 208.811 53.6725 208.57 52.9824C208.336 52.2923 208.219 51.5078 208.219 50.6289C208.219 49.457 208.417 48.4609 208.814 47.6406C209.212 46.8138 209.778 46.1855 210.514 45.7559C211.256 45.3197 212.138 45.1016 213.16 45.1016C214.137 45.1016 214.99 45.3197 215.719 45.7559C216.454 46.1921 217.024 46.8236 217.428 47.6504C217.838 48.4707 218.043 49.4635 218.043 50.6289ZM209.898 50.6289C209.898 51.4883 210.012 52.2337 210.24 52.8652C210.468 53.4967 210.82 53.985 211.295 54.3301C211.77 54.6751 212.382 54.8477 213.131 54.8477C213.873 54.8477 214.482 54.6751 214.957 54.3301C215.439 53.985 215.794 53.4967 216.021 52.8652C216.249 52.2337 216.363 51.4883 216.363 50.6289C216.363 49.776 216.249 49.0404 216.021 48.4219C215.794 47.7969 215.442 47.3151 214.967 46.9766C214.492 46.638 213.876 46.4688 213.121 46.4688C212.008 46.4688 211.191 46.8366 210.67 47.5723C210.156 48.3079 209.898 49.3268 209.898 50.6289ZM94.8496 72.2969V83H93.3848V76.0273C93.3848 75.7409 93.3913 75.4512 93.4043 75.1582C93.4238 74.8587 93.4466 74.5592 93.4727 74.2598H93.4141L89.8594 83H88.4824L85.0156 74.2598H84.957C84.9766 74.5592 84.9896 74.8587 84.9961 75.1582C85.0091 75.4512 85.0156 75.7604 85.0156 76.0859V83H83.541V72.2969H85.7188L89.1758 81.0469L92.6816 72.2969H94.8496ZM102.223 72.1211C103.499 72.1211 104.446 72.4076 105.064 72.9805C105.683 73.5534 105.992 74.4681 105.992 75.7246V83H104.811L104.498 81.418H104.42C104.12 81.8086 103.808 82.1374 103.482 82.4043C103.157 82.6647 102.779 82.8633 102.35 83C101.926 83.1302 101.406 83.1953 100.787 83.1953C100.136 83.1953 99.5566 83.0814 99.0488 82.8535C98.5475 82.6257 98.1504 82.2806 97.8574 81.8184C97.571 81.3561 97.4277 80.7702 97.4277 80.0605C97.4277 78.9928 97.8509 78.1725 98.6973 77.5996C99.5436 77.0267 100.833 76.7142 102.564 76.6621L104.41 76.584V75.9297C104.41 75.0052 104.212 74.3574 103.814 73.9863C103.417 73.6152 102.857 73.4297 102.135 73.4297C101.575 73.4297 101.041 73.5111 100.533 73.6738C100.025 73.8366 99.5436 74.0286 99.0879 74.25L98.5898 73.0195C99.0716 72.7721 99.625 72.5605 100.25 72.3848C100.875 72.209 101.533 72.1211 102.223 72.1211ZM104.391 77.7266L102.76 77.7949C101.425 77.847 100.484 78.0651 99.9375 78.4492C99.3906 78.8333 99.1172 79.377 99.1172 80.0801C99.1172 80.6921 99.3027 81.1445 99.6738 81.4375C100.045 81.7305 100.536 81.877 101.148 81.877C102.099 81.877 102.877 81.6133 103.482 81.0859C104.088 80.5586 104.391 79.7676 104.391 78.7129V77.7266ZM123.688 72.2969V83H109.332V72.2969H110.953V81.623H115.689V72.2969H117.32V81.623H122.066V72.2969H123.688ZM128.668 72.2969V79.0254C128.668 79.1556 128.665 79.3249 128.658 79.5332C128.652 79.735 128.642 79.9531 128.629 80.1875C128.616 80.4154 128.603 80.6367 128.59 80.8516C128.583 81.0599 128.574 81.2324 128.561 81.3691L134.4 72.2969H136.393V83H134.879V76.4375C134.879 76.2292 134.882 75.9622 134.889 75.6367C134.895 75.3112 134.905 74.9922 134.918 74.6797C134.931 74.3607 134.941 74.1133 134.947 73.9375L129.127 83H127.125V72.2969H128.668ZM141.471 72.2969V76.7891H147.438V72.2969H149.059V83H147.438V78.166H141.471V83H139.84V72.2969H141.471ZM152.496 83V72.2969H154.127V76.7109H157.057C157.968 76.7109 158.717 76.8249 159.303 77.0527C159.895 77.2806 160.335 77.6191 160.621 78.0684C160.908 78.5176 161.051 79.0742 161.051 79.7383C161.051 80.4023 160.908 80.9785 160.621 81.4668C160.341 81.9551 159.898 82.3327 159.293 82.5996C158.694 82.8665 157.913 83 156.949 83H152.496ZM154.127 81.6816H156.793C157.6 81.6816 158.245 81.5384 158.727 81.252C159.208 80.9655 159.449 80.487 159.449 79.8164C159.449 79.1589 159.225 78.7031 158.775 78.4492C158.326 78.1888 157.682 78.0586 156.842 78.0586H154.127V81.6816ZM162.818 83V72.2969H164.439V83H162.818Z" fill="black"/>
<defs>
<filter id="filter0_d_123_5" x="0" y="0" width="248" height="120" filterUnits="userSpaceOnUse" color-interpolation-filters="sRGB">
<feFlood flood-opacity="0" result="BackgroundImageFix"/>
<feColorMatrix in="SourceAlpha" type="matrix" values="0 0 0 0 0 0 0 0 0 0 0 0 0 0 0 0 0 0 127 0" result="hardAlpha"/>
<feOffset dy="4"/>
<feGaussianBlur stdDeviation="2"/>
<feComposite in2="hardAlpha" operator="out"/>
<feColorMatrix type="matrix" values="0 0 0 0 0 0 0 0 0 0 0 0 0 0 0 0 0 0 0.25 0"/>
<feBlend mode="normal" in2="BackgroundImageFix" result="effect1_dropShadow_123_5"/>
<feBlend mode="normal" in="SourceGraphic" in2="effect1_dropShadow_123_5" result="shape"/>
</filter>
</defs>
</svg>
