<svg width="108" height="58" viewBox="0 0 108 58" fill="none" xmlns="http://www.w3.org/2000/svg">
<g filter="url(#filter0_d_102_22)">
<rect x="4" width="100" height="50" rx="3" fill="#FFEF5A"/>
</g>
<path d="M17.834 22.1895C17.3613 22.1895 16.9355 22.2715 16.5566 22.4355C16.1816 22.5957 15.8613 22.8301 15.5957 23.1387C15.334 23.4434 15.1328 23.8125 14.9922 24.2461C14.8516 24.6797 14.7812 25.168 14.7812 25.7109C14.7812 26.4297 14.8926 27.0547 15.1152 27.5859C15.3418 28.1133 15.6777 28.5215 16.123 28.8105C16.5723 29.0996 17.1328 29.2441 17.8047 29.2441C18.1875 29.2441 18.5469 29.2129 18.8828 29.1504C19.2227 29.084 19.5527 29.002 19.873 28.9043V29.7715C19.5605 29.8887 19.2324 29.9746 18.8887 30.0293C18.5449 30.0879 18.1367 30.1172 17.6641 30.1172C16.793 30.1172 16.0645 29.9375 15.4785 29.5781C14.8965 29.2148 14.459 28.7031 14.166 28.043C13.877 27.3828 13.7324 26.6035 13.7324 25.7051C13.7324 25.0566 13.8223 24.4648 14.002 23.9297C14.1855 23.3906 14.4512 22.9258 14.7988 22.5352C15.1504 22.1445 15.5801 21.8438 16.0879 21.6328C16.5996 21.418 17.1855 21.3105 17.8457 21.3105C18.2793 21.3105 18.6973 21.3535 19.0996 21.4395C19.502 21.5254 19.8652 21.6484 20.1895 21.8086L19.791 22.6523C19.5176 22.5273 19.2168 22.4199 18.8887 22.3301C18.5645 22.2363 18.2129 22.1895 17.834 22.1895ZM26.2891 23.5781V29.1738H27.209V32.2207H26.2656V30H21.7188V32.2207H20.7871V29.1738H21.291C21.6582 28.666 21.9629 28.1094 22.2051 27.5039C22.4473 26.8984 22.6309 26.2637 22.7559 25.5996C22.8809 24.9316 22.9473 24.2578 22.9551 23.5781H26.2891ZM25.3457 24.3516H23.8223C23.7871 24.9219 23.7031 25.502 23.5703 26.0918C23.4414 26.6816 23.2695 27.2441 23.0547 27.7793C22.8398 28.3105 22.5898 28.7754 22.3047 29.1738H25.3457V24.3516ZM30.959 23.4609C31.5059 23.4609 31.9746 23.582 32.3652 23.8242C32.7559 24.0664 33.0547 24.4062 33.2617 24.8438C33.4688 25.2773 33.5723 25.7852 33.5723 26.3672V26.9707H29.1367C29.1484 27.7246 29.3359 28.2988 29.6992 28.6934C30.0625 29.0879 30.5742 29.2852 31.2344 29.2852C31.6406 29.2852 32 29.248 32.3125 29.1738C32.625 29.0996 32.9492 28.9902 33.2852 28.8457V29.7012C32.9609 29.8457 32.6387 29.9512 32.3184 30.0176C32.002 30.084 31.627 30.1172 31.1934 30.1172C30.5762 30.1172 30.0371 29.9922 29.5762 29.7422C29.1191 29.4883 28.7637 29.1172 28.5098 28.6289C28.2559 28.1406 28.1289 27.543 28.1289 26.8359C28.1289 26.1445 28.2441 25.5469 28.4746 25.043C28.709 24.5352 29.0371 24.1445 29.459 23.8711C29.8848 23.5977 30.3848 23.4609 30.959 23.4609ZM30.9473 24.2578C30.4277 24.2578 30.0137 24.4277 29.7051 24.7676C29.3965 25.1074 29.2129 25.582 29.1543 26.1914H32.5527C32.5488 25.8086 32.4883 25.4727 32.3711 25.1836C32.2578 24.8906 32.084 24.6641 31.8496 24.5039C31.6152 24.3398 31.3145 24.2578 30.9473 24.2578ZM40.041 30H39.0508V24.3926H37.0996C37.0215 25.4043 36.9219 26.2715 36.8008 26.9941C36.6836 27.7129 36.5352 28.3008 36.3555 28.7578C36.1797 29.2109 35.9648 29.5449 35.7109 29.7598C35.4609 29.9707 35.1621 30.0762 34.8145 30.0762C34.709 30.0762 34.6094 30.0703 34.5156 30.0586C34.4219 30.0469 34.3418 30.0273 34.2754 30V29.2617C34.3262 29.2773 34.3789 29.2891 34.4336 29.2969C34.4922 29.3047 34.5527 29.3086 34.6152 29.3086C34.791 29.3086 34.9512 29.2363 35.0957 29.0918C35.2441 28.9434 35.377 28.7207 35.4941 28.4238C35.6152 28.127 35.7227 27.752 35.8164 27.2988C35.9102 26.8418 35.9922 26.3047 36.0625 25.6875C36.1367 25.0664 36.2012 24.3633 36.2559 23.5781H40.041V30ZM44.4941 23.4727C45.2598 23.4727 45.8281 23.6445 46.1992 23.9883C46.5703 24.332 46.7559 24.8809 46.7559 25.6348V30H46.0469L45.8594 29.0508H45.8125C45.6328 29.2852 45.4453 29.4824 45.25 29.6426C45.0547 29.7988 44.8281 29.918 44.5703 30C44.3164 30.0781 44.0039 30.1172 43.6328 30.1172C43.2422 30.1172 42.8945 30.0488 42.5898 29.9121C42.2891 29.7754 42.0508 29.5684 41.875 29.291C41.7031 29.0137 41.6172 28.6621 41.6172 28.2363C41.6172 27.5957 41.8711 27.1035 42.3789 26.7598C42.8867 26.416 43.6602 26.2285 44.6992 26.1973L45.8066 26.1504V25.7578C45.8066 25.2031 45.6875 24.8145 45.4492 24.5918C45.2109 24.3691 44.875 24.2578 44.4414 24.2578C44.1055 24.2578 43.7852 24.3066 43.4805 24.4043C43.1758 24.502 42.8867 24.6172 42.6133 24.75L42.3145 24.0117C42.6035 23.8633 42.9355 23.7363 43.3105 23.6309C43.6855 23.5254 44.0801 23.4727 44.4941 23.4727ZM45.7949 26.8359L44.8164 26.877C44.0156 26.9082 43.4512 27.0391 43.123 27.2695C42.7949 27.5 42.6309 27.8262 42.6309 28.248C42.6309 28.6152 42.7422 28.8867 42.9648 29.0625C43.1875 29.2383 43.4824 29.3262 43.8496 29.3262C44.4199 29.3262 44.8867 29.168 45.25 28.8516C45.6133 28.5352 45.7949 28.0605 45.7949 27.4277V26.8359ZM53.1367 24.4043H51.0215V30H50.0605V24.4043H47.9746V23.5781H53.1367V24.4043ZM55.3867 26.2266H57.3555C57.9023 26.2266 58.3574 26.2949 58.7207 26.4316C59.084 26.5684 59.3555 26.7715 59.5352 27.041C59.7188 27.3105 59.8105 27.6445 59.8105 28.043C59.8105 28.4414 59.7207 28.7871 59.541 29.0801C59.3652 29.373 59.0918 29.5996 58.7207 29.7598C58.3535 29.9199 57.8789 30 57.2969 30H54.4082V23.5781H55.3867V26.2266ZM58.832 28.0898C58.832 27.6953 58.6914 27.4219 58.4102 27.2695C58.1328 27.1133 57.7441 27.0352 57.2441 27.0352H55.3867V29.209H57.25C57.7188 29.209 58.0996 29.123 58.3926 28.9512C58.6855 28.7754 58.832 28.4883 58.832 28.0898ZM66.2559 23.4609C66.7363 23.4609 67.1523 23.5273 67.5039 23.6602C67.8555 23.7891 68.127 23.9785 68.3184 24.2285C68.5098 24.4785 68.6055 24.7832 68.6055 25.1426C68.6055 25.5293 68.5 25.8379 68.2891 26.0684C68.0781 26.2988 67.7871 26.4648 67.416 26.5664V26.6133C67.6777 26.6836 67.9141 26.7852 68.125 26.918C68.3398 27.0469 68.5098 27.2188 68.6348 27.4336C68.7637 27.6445 68.8281 27.9082 68.8281 28.2246C68.8281 28.584 68.7305 28.9082 68.5352 29.1973C68.3398 29.4824 68.043 29.707 67.6445 29.8711C67.2461 30.0352 66.7422 30.1172 66.1328 30.1172C65.832 30.1172 65.5469 30.0996 65.2773 30.0645C65.0078 30.0332 64.7637 29.9863 64.5449 29.9238C64.3262 29.8613 64.1348 29.7871 63.9707 29.7012V28.8164C64.2441 28.9492 64.5645 29.0664 64.9316 29.168C65.2988 29.2695 65.6953 29.3203 66.1211 29.3203C66.4492 29.3203 66.7441 29.2832 67.0059 29.209C67.2676 29.1309 67.4746 29.0078 67.627 28.8398C67.7832 28.668 67.8613 28.4434 67.8613 28.166C67.8613 27.9121 67.793 27.7031 67.6562 27.5391C67.5195 27.3711 67.3145 27.248 67.041 27.1699C66.7715 27.0879 66.4297 27.0469 66.0156 27.0469H65.1543V26.25H65.8633C66.4141 26.25 66.8535 26.1719 67.1816 26.0156C67.5098 25.8594 67.6738 25.5957 67.6738 25.2246C67.6738 24.9043 67.5469 24.666 67.293 24.5098C67.0391 24.3496 66.6758 24.2695 66.2031 24.2695C65.8516 24.2695 65.541 24.3066 65.2715 24.3809C65.002 24.4512 64.7109 24.5527 64.3984 24.6855L64.0527 23.9062C64.3887 23.7578 64.7402 23.6465 65.1074 23.5723C65.4746 23.498 65.8574 23.4609 66.2559 23.4609ZM72.8066 23.4727C73.5723 23.4727 74.1406 23.6445 74.5117 23.9883C74.8828 24.332 75.0684 24.8809 75.0684 25.6348V30H74.3594L74.1719 29.0508H74.125C73.9453 29.2852 73.7578 29.4824 73.5625 29.6426C73.3672 29.7988 73.1406 29.918 72.8828 30C72.6289 30.0781 72.3164 30.1172 71.9453 30.1172C71.5547 30.1172 71.207 30.0488 70.9023 29.9121C70.6016 29.7754 70.3633 29.5684 70.1875 29.291C70.0156 29.0137 69.9297 28.6621 69.9297 28.2363C69.9297 27.5957 70.1836 27.1035 70.6914 26.7598C71.1992 26.416 71.9727 26.2285 73.0117 26.1973L74.1191 26.1504V25.7578C74.1191 25.2031 74 24.8145 73.7617 24.5918C73.5234 24.3691 73.1875 24.2578 72.7539 24.2578C72.418 24.2578 72.0977 24.3066 71.793 24.4043C71.4883 24.502 71.1992 24.6172 70.9258 24.75L70.627 24.0117C70.916 23.8633 71.248 23.7363 71.623 23.6309C71.998 23.5254 72.3926 23.4727 72.8066 23.4727ZM74.1074 26.8359L73.1289 26.877C72.3281 26.9082 71.7637 27.0391 71.4355 27.2695C71.1074 27.5 70.9434 27.8262 70.9434 28.248C70.9434 28.6152 71.0547 28.8867 71.2773 29.0625C71.5 29.2383 71.7949 29.3262 72.1621 29.3262C72.7324 29.3262 73.1992 29.168 73.5625 28.8516C73.9258 28.5352 74.1074 28.0605 74.1074 27.4277V26.8359ZM80.8164 23.5781H81.8887L79.1172 26.6777L82.1113 30H80.9688L78.0508 26.7422V30H77.0723V23.5781H78.0508V26.6953L80.8164 23.5781ZM85.6738 23.4727C86.4395 23.4727 87.0078 23.6445 87.3789 23.9883C87.75 24.332 87.9355 24.8809 87.9355 25.6348V30H87.2266L87.0391 29.0508H86.9922C86.8125 29.2852 86.625 29.4824 86.4297 29.6426C86.2344 29.7988 86.0078 29.918 85.75 30C85.4961 30.0781 85.1836 30.1172 84.8125 30.1172C84.4219 30.1172 84.0742 30.0488 83.7695 29.9121C83.4688 29.7754 83.2305 29.5684 83.0547 29.291C82.8828 29.0137 82.7969 28.6621 82.7969 28.2363C82.7969 27.5957 83.0508 27.1035 83.5586 26.7598C84.0664 26.416 84.8398 26.2285 85.8789 26.1973L86.9863 26.1504V25.7578C86.9863 25.2031 86.8672 24.8145 86.6289 24.5918C86.3906 24.3691 86.0547 24.2578 85.6211 24.2578C85.2852 24.2578 84.9648 24.3066 84.6602 24.4043C84.3555 24.502 84.0664 24.6172 83.793 24.75L83.4941 24.0117C83.7832 23.8633 84.1152 23.7363 84.4902 23.6309C84.8652 23.5254 85.2598 23.4727 85.6738 23.4727ZM86.9746 26.8359L85.9961 26.877C85.1953 26.9082 84.6309 27.0391 84.3027 27.2695C83.9746 27.5 83.8105 27.8262 83.8105 28.248C83.8105 28.6152 83.9219 28.8867 84.1445 29.0625C84.3672 29.2383 84.6621 29.3262 85.0293 29.3262C85.5996 29.3262 86.0664 29.168 86.4297 28.8516C86.793 28.5352 86.9746 28.0605 86.9746 27.4277V26.8359ZM91.5918 23.4609C92.0723 23.4609 92.4883 23.5273 92.8398 23.6602C93.1914 23.7891 93.4629 23.9785 93.6543 24.2285C93.8457 24.4785 93.9414 24.7832 93.9414 25.1426C93.9414 25.5293 93.8359 25.8379 93.625 26.0684C93.4141 26.2988 93.123 26.4648 92.752 26.5664V26.6133C93.0137 26.6836 93.25 26.7852 93.4609 26.918C93.6758 27.0469 93.8457 27.2188 93.9707 27.4336C94.0996 27.6445 94.1641 27.9082 94.1641 28.2246C94.1641 28.584 94.0664 28.9082 93.8711 29.1973C93.6758 29.4824 93.3789 29.707 92.9805 29.8711C92.582 30.0352 92.0781 30.1172 91.4688 30.1172C91.168 30.1172 90.8828 30.0996 90.6133 30.0645C90.3438 30.0332 90.0996 29.9863 89.8809 29.9238C89.6621 29.8613 89.4707 29.7871 89.3066 29.7012V28.8164C89.5801 28.9492 89.9004 29.0664 90.2676 29.168C90.6348 29.2695 91.0312 29.3203 91.457 29.3203C91.7852 29.3203 92.0801 29.2832 92.3418 29.209C92.6035 29.1309 92.8105 29.0078 92.9629 28.8398C93.1191 28.668 93.1973 28.4434 93.1973 28.166C93.1973 27.9121 93.1289 27.7031 92.9922 27.5391C92.8555 27.3711 92.6504 27.248 92.377 27.1699C92.1074 27.0879 91.7656 27.0469 91.3516 27.0469H90.4902V26.25H91.1992C91.75 26.25 92.1895 26.1719 92.5176 26.0156C92.8457 25.8594 93.0098 25.5957 93.0098 25.2246C93.0098 24.9043 92.8828 24.666 92.6289 24.5098C92.375 24.3496 92.0117 24.2695 91.5391 24.2695C91.1875 24.2695 90.877 24.3066 90.6074 24.3809C90.3379 24.4512 90.0469 24.5527 89.7344 24.6855L89.3887 23.9062C89.7246 23.7578 90.0762 23.6465 90.4434 23.5723C90.8105 23.498 91.1934 23.4609 91.5918 23.4609Z" fill="black"/>
<defs>
<filter id="filter0_d_102_22" x="0" y="0" width="108" height="58" filterUnits="userSpaceOnUse" color-interpolation-filters="sRGB">
<feFlood flood-opacity="0" result="BackgroundImageFix"/>
<feColorMatrix in="SourceAlpha" type="matrix" values="0 0 0 0 0 0 0 0 0 0 0 0 0 0 0 0 0 0 127 0" result="hardAlpha"/>
<feOffset dy="4"/>
<feGaussianBlur stdDeviation="2"/>
<feComposite in2="hardAlpha" operator="out"/>
<feColorMatrix type="matrix" values="0 0 0 0 0 0 0 0 0 0 0 0 0 0 0 0 0 0 0.25 0"/>
<feBlend mode="normal" in2="BackgroundImageFix" result="effect1_dropShadow_102_22"/>
<feBlend mode="normal" in="SourceGraphic" in2="effect1_dropShadow_102_22" result="shape"/>
</filter>
</defs>
</svg>
