<svg width="158" height="78" viewBox="0 0 158 78" fill="none" xmlns="http://www.w3.org/2000/svg">
<g filter="url(#filter0_d_202_2)">
<rect x="4" width="150" height="70" rx="3" fill="#FFEF5A"/>
</g>
<path d="M57.1406 30.5781H60.375C61.8021 30.5781 62.875 30.7917 63.5938 31.2188C64.3125 31.6458 64.6719 32.3724 64.6719 33.3984C64.6719 33.8411 64.5859 34.2396 64.4141 34.5938C64.2474 34.9427 64.0026 35.2318 63.6797 35.4609C63.3568 35.6901 62.9583 35.849 62.4844 35.9375V36.0156C62.9844 36.0938 63.4271 36.237 63.8125 36.4453C64.1979 36.6536 64.5 36.9453 64.7188 37.3203C64.9375 37.6953 65.0469 38.1719 65.0469 38.75C65.0469 39.4531 64.8828 40.0469 64.5547 40.5312C64.2318 41.0156 63.7734 41.3828 63.1797 41.6328C62.5859 41.8776 61.8828 42 61.0703 42H57.1406V30.5781ZM58.4688 35.4766H60.6562C61.651 35.4766 62.3385 35.3125 62.7188 34.9844C63.1042 34.6562 63.2969 34.1771 63.2969 33.5469C63.2969 32.8958 63.0677 32.4271 62.6094 32.1406C62.1562 31.8542 61.4323 31.7109 60.4375 31.7109H58.4688V35.4766ZM58.4688 36.5938V40.8672H60.8438C61.8594 40.8672 62.5781 40.6693 63 40.2734C63.4219 39.8724 63.6328 39.3333 63.6328 38.6562C63.6328 38.224 63.5365 37.8542 63.3438 37.5469C63.1562 37.2396 62.849 37.0052 62.4219 36.8438C62 36.6771 61.4349 36.5938 60.7266 36.5938H58.4688ZM74.6719 37.7031C74.6719 38.4062 74.5807 39.0339 74.3984 39.5859C74.2161 40.138 73.9531 40.6042 73.6094 40.9844C73.2656 41.3646 72.849 41.6562 72.3594 41.8594C71.875 42.0573 71.3255 42.1562 70.7109 42.1562C70.138 42.1562 69.612 42.0573 69.1328 41.8594C68.6589 41.6562 68.2474 41.3646 67.8984 40.9844C67.5547 40.6042 67.2865 40.138 67.0938 39.5859C66.9062 39.0339 66.8125 38.4062 66.8125 37.7031C66.8125 36.7656 66.9714 35.9688 67.2891 35.3125C67.6068 34.651 68.0599 34.1484 68.6484 33.8047C69.2422 33.4557 69.9479 33.2812 70.7656 33.2812C71.5469 33.2812 72.2292 33.4557 72.8125 33.8047C73.401 34.1536 73.8568 34.6589 74.1797 35.3203C74.5078 35.9766 74.6719 36.7708 74.6719 37.7031ZM68.1562 37.7031C68.1562 38.3906 68.2474 38.987 68.4297 39.4922C68.612 39.9974 68.8932 40.388 69.2734 40.6641C69.6536 40.9401 70.1432 41.0781 70.7422 41.0781C71.3359 41.0781 71.8229 40.9401 72.2031 40.6641C72.5885 40.388 72.8724 39.9974 73.0547 39.4922C73.237 38.987 73.3281 38.3906 73.3281 37.7031C73.3281 37.0208 73.237 36.4323 73.0547 35.9375C72.8724 35.4375 72.5911 35.0521 72.2109 34.7812C71.8307 34.5104 71.3385 34.375 70.7344 34.375C69.8438 34.375 69.1901 34.6693 68.7734 35.2578C68.362 35.8464 68.1562 36.6615 68.1562 37.7031ZM78.1484 33.4375V38.8203C78.1484 38.9245 78.1458 39.0599 78.1406 39.2266C78.1354 39.388 78.1276 39.5625 78.1172 39.75C78.1068 39.9323 78.0964 40.1094 78.0859 40.2812C78.0807 40.4479 78.0729 40.5859 78.0625 40.6953L82.7344 33.4375H84.3281V42H83.1172V36.75C83.1172 36.5833 83.1198 36.3698 83.125 36.1094C83.1302 35.849 83.138 35.5938 83.1484 35.3438C83.1589 35.0885 83.1667 34.8906 83.1719 34.75L78.5156 42H76.9141V33.4375H78.1484ZM83.6875 29.9141C83.6406 30.4401 83.5078 30.8802 83.2891 31.2344C83.0755 31.5885 82.7604 31.8568 82.3438 32.0391C81.9271 32.2161 81.3932 32.3047 80.7422 32.3047C80.0703 32.3047 79.5286 32.2188 79.1172 32.0469C78.7109 31.8698 78.4089 31.6042 78.2109 31.25C78.0182 30.8958 77.9036 30.4505 77.8672 29.9141H79.0859C79.1432 30.487 79.2969 30.8776 79.5469 31.0859C79.7969 31.2943 80.2031 31.3984 80.7656 31.3984C81.2656 31.3984 81.6589 31.2891 81.9453 31.0703C82.2318 30.8516 82.4036 30.4661 82.4609 29.9141H83.6875ZM92.9219 34.5391H90.1016V42H88.8203V34.5391H86.0391V33.4375H92.9219V34.5391ZM95.8516 33.4375V38.8203C95.8516 38.9245 95.849 39.0599 95.8438 39.2266C95.8385 39.388 95.8307 39.5625 95.8203 39.75C95.8099 39.9323 95.7995 40.1094 95.7891 40.2812C95.7839 40.4479 95.776 40.5859 95.7656 40.6953L100.438 33.4375H102.031V42H100.82V36.75C100.82 36.5833 100.823 36.3698 100.828 36.1094C100.833 35.849 100.841 35.5938 100.852 35.3438C100.862 35.0885 100.87 34.8906 100.875 34.75L96.2188 42H94.6172V33.4375H95.8516Z" fill="black"/>
<defs>
<filter id="filter0_d_202_2" x="0" y="0" width="158" height="78" filterUnits="userSpaceOnUse" color-interpolation-filters="sRGB">
<feFlood flood-opacity="0" result="BackgroundImageFix"/>
<feColorMatrix in="SourceAlpha" type="matrix" values="0 0 0 0 0 0 0 0 0 0 0 0 0 0 0 0 0 0 127 0" result="hardAlpha"/>
<feOffset dy="4"/>
<feGaussianBlur stdDeviation="2"/>
<feComposite in2="hardAlpha" operator="out"/>
<feColorMatrix type="matrix" values="0 0 0 0 0 0 0 0 0 0 0 0 0 0 0 0 0 0 0.25 0"/>
<feBlend mode="normal" in2="BackgroundImageFix" result="effect1_dropShadow_202_2"/>
<feBlend mode="normal" in="SourceGraphic" in2="effect1_dropShadow_202_2" result="shape"/>
</filter>
</defs>
</svg>
