<svg width="98" height="98" viewBox="0 0 98 98" fill="none" xmlns="http://www.w3.org/2000/svg">
<g filter="url(#filter0_d_101_18)">
<circle cx="49" cy="45" r="45" fill="#FFEF5A"/>
<g filter="url(#filter1_d_101_18)">
<rect x="54" y="45" width="25" height="35" transform="rotate(90 54 45)" fill="#A37850"/>
<rect x="19" y="45" width="35" height="1" fill="#CD9663"/>
<rect x="19" y="69" width="35" height="1" fill="#CD9663"/>
<rect x="54" y="45" width="24" height="1" transform="rotate(90 54 45)" fill="#CD9663"/>
<rect x="20" y="45" width="24" height="1" transform="rotate(90 20 45)" fill="#CD9663"/>
<rect x="19.6438" y="45.6036" width="40.9818" height="1" transform="rotate(34.5962 19.6438 45.6036)" fill="#CD9663"/>
</g>
<g filter="url(#filter2_d_101_18)">
<rect x="80" y="70" width="25" height="35" transform="rotate(180 80 70)" fill="#A37850"/>
<rect x="80" y="35" width="35" height="1" transform="rotate(90 80 35)" fill="#CD9663"/>
<rect x="56" y="35" width="35" height="1" transform="rotate(90 56 35)" fill="#CD9663"/>
<rect x="80" y="70" width="24" height="1" transform="rotate(180 80 70)" fill="#CD9663"/>
<rect x="80" y="36" width="24" height="1" transform="rotate(180 80 36)" fill="#CD9663"/>
<rect x="79.3964" y="35.6438" width="40.9818" height="1" transform="rotate(124.596 79.3964 35.6438)" fill="#CD9663"/>
</g>
</g>
<defs>
<filter id="filter0_d_101_18" x="0" y="0" width="98" height="98" filterUnits="userSpaceOnUse" color-interpolation-filters="sRGB">
<feFlood flood-opacity="0" result="BackgroundImageFix"/>
<feColorMatrix in="SourceAlpha" type="matrix" values="0 0 0 0 0 0 0 0 0 0 0 0 0 0 0 0 0 0 127 0" result="hardAlpha"/>
<feOffset dy="4"/>
<feGaussianBlur stdDeviation="2"/>
<feComposite in2="hardAlpha" operator="out"/>
<feColorMatrix type="matrix" values="0 0 0 0 0 0 0 0 0 0 0 0 0 0 0 0 0 0 0.25 0"/>
<feBlend mode="normal" in2="BackgroundImageFix" result="effect1_dropShadow_101_18"/>
<feBlend mode="normal" in="SourceGraphic" in2="effect1_dropShadow_101_18" result="shape"/>
</filter>
<filter id="filter1_d_101_18" x="15" y="45" width="43" height="33" filterUnits="userSpaceOnUse" color-interpolation-filters="sRGB">
<feFlood flood-opacity="0" result="BackgroundImageFix"/>
<feColorMatrix in="SourceAlpha" type="matrix" values="0 0 0 0 0 0 0 0 0 0 0 0 0 0 0 0 0 0 127 0" result="hardAlpha"/>
<feOffset dy="4"/>
<feGaussianBlur stdDeviation="2"/>
<feComposite in2="hardAlpha" operator="out"/>
<feColorMatrix type="matrix" values="0 0 0 0 0 0 0 0 0 0 0 0 0 0 0 0 0 0 0.25 0"/>
<feBlend mode="normal" in2="BackgroundImageFix" result="effect1_dropShadow_101_18"/>
<feBlend mode="normal" in="SourceGraphic" in2="effect1_dropShadow_101_18" result="shape"/>
</filter>
<filter id="filter2_d_101_18" x="51" y="35" width="33" height="43" filterUnits="userSpaceOnUse" color-interpolation-filters="sRGB">
<feFlood flood-opacity="0" result="BackgroundImageFix"/>
<feColorMatrix in="SourceAlpha" type="matrix" values="0 0 0 0 0 0 0 0 0 0 0 0 0 0 0 0 0 0 127 0" result="hardAlpha"/>
<feOffset dy="4"/>
<feGaussianBlur stdDeviation="2"/>
<feComposite in2="hardAlpha" operator="out"/>
<feColorMatrix type="matrix" values="0 0 0 0 0 0 0 0 0 0 0 0 0 0 0 0 0 0 0.25 0"/>
<feBlend mode="normal" in2="BackgroundImageFix" result="effect1_dropShadow_101_18"/>
<feBlend mode="normal" in="SourceGraphic" in2="effect1_dropShadow_101_18" result="shape"/>
</filter>
</defs>
</svg>
