<svg width="200" height="200" viewBox="0 0 200 200" fill="none" xmlns="http://www.w3.org/2000/svg">
<circle cx="100" cy="100" r="100" fill="#FFEF5A"/>
<g filter="url(#filter0_d_109_76)">
<rect x="148" y="66" width="70" height="98" transform="rotate(90 148 66)" fill="#A37850"/>
<rect x="50" y="66" width="98" height="2.8" fill="#CD9663"/>
<rect x="50" y="133.2" width="98" height="2.8" fill="#CD9663"/>
<rect x="148" y="66" width="67.2" height="2.8" transform="rotate(90 148 66)" fill="#CD9663"/>
<rect x="52.8" y="66" width="67.2" height="2.8" transform="rotate(90 52.8 66)" fill="#CD9663"/>
<rect x="51.8026" y="67.6902" width="114.749" height="2.8" transform="rotate(34.5962 51.8026 67.6902)" fill="#CD9663"/>
</g>
<line x1="45" y1="61" x2="151" y2="61" stroke="#696223" stroke-width="2"/>
<line x1="151" y1="60" x2="151" y2="142" stroke="#696223" stroke-width="2"/>
<line x1="45" y1="60" x2="45" y2="142" stroke="#696223" stroke-width="2"/>
<line x1="46" y1="141" x2="152" y2="141" stroke="#696223" stroke-width="2"/>
<defs>
<filter id="filter0_d_109_76" x="46" y="66" width="106" height="78" filterUnits="userSpaceOnUse" color-interpolation-filters="sRGB">
<feFlood flood-opacity="0" result="BackgroundImageFix"/>
<feColorMatrix in="SourceAlpha" type="matrix" values="0 0 0 0 0 0 0 0 0 0 0 0 0 0 0 0 0 0 127 0" result="hardAlpha"/>
<feOffset dy="4"/>
<feGaussianBlur stdDeviation="2"/>
<feComposite in2="hardAlpha" operator="out"/>
<feColorMatrix type="matrix" values="0 0 0 0 0 0 0 0 0 0 0 0 0 0 0 0 0 0 0.25 0"/>
<feBlend mode="normal" in2="BackgroundImageFix" result="effect1_dropShadow_109_76"/>
<feBlend mode="normal" in="SourceGraphic" in2="effect1_dropShadow_109_76" result="shape"/>
</filter>
</defs>
</svg>
